<svg width="246" height="246" viewBox="0 0 246 246" fill="none" xmlns="http://www.w3.org/2000/svg">
<g clip-path="url(#clip0_194_5668)">
<path d="M206.3 221.239C214.175 216.974 222.078 212.411 228.158 205.835C234.237 199.259 238.323 190.288 237.068 181.421C235.914 173.268 230.503 166.237 229.066 158.128C226.6 144.213 236.127 131.149 238.351 117.193C240.023 106.698 237.322 95.5756 231.023 87.0164C225.281 79.2141 216.829 73.6164 211.647 65.4319C204.662 54.4029 204.301 39.755 195.772 29.8719C189.594 22.7133 180.212 19.3493 171.245 16.3488C155.353 11.0313 139.134 5.90241 122.388 5.29447C105.641 4.68653 88.0464 9.12614 75.9544 20.7285C72.196 24.3346 68.9926 28.6483 67.3719 33.5986C63.54 45.3036 69.026 57.7232 72.4655 69.5494C73.1383 71.863 73.7379 74.3043 73.2297 76.6593C72.729 78.9792 71.2102 80.9388 69.6094 82.6908C62.1508 90.8549 52.224 96.245 42.6451 101.77C33.0661 107.295 23.3864 113.337 16.9301 122.314C10.4735 131.291 7.9397 143.95 13.5512 153.479C15.7283 157.176 19.0493 160.359 19.9313 164.557C21.4904 171.979 15.0218 178.324 11.2176 184.884C4.9016 195.777 6.06736 210.525 14.0164 220.29C21.9653 230.055 36.1702 234.189 48.1179 230.214L206.3 221.239Z" fill="#E1F9EC"/>
<path d="M82.0958 44.9859L34.3458 62.8922C28.1383 65.2797 24 71.1688 24 77.8538V115.258C24 153.697 48.9096 189.828 83.1304 200.81C86.075 201.765 89.2583 201.765 92.2029 200.81C126.424 189.828 151.333 153.776 151.333 115.258V77.8538C151.328 74.6153 150.334 71.4555 148.486 68.7963C146.637 66.1372 144.021 64.1052 140.988 62.9717L93.2375 45.0655C89.6562 43.633 85.6771 43.633 82.0958 44.9859ZM87.6667 162.292C65.7017 162.292 47.875 144.465 47.875 122.5C47.875 100.535 65.7017 82.7084 87.6667 82.7084C109.632 82.7084 127.458 100.535 127.458 122.5C127.458 144.465 109.632 162.292 87.6667 162.292ZM103.583 138.417C101.992 140.008 99.5246 140.008 97.9329 138.417L84.8017 125.285C84.0591 124.546 83.6313 123.548 83.6079 122.5V102.604C83.6875 100.376 85.4383 98.6251 87.6667 98.6251C89.895 98.6251 91.6458 100.376 91.6458 102.604V120.829L103.583 132.766C105.175 134.358 105.175 136.825 103.583 138.417Z" fill="#12B76A"/>
<path d="M33.3503 219.843C34.5418 198.396 18.655 169.465 2.37072 168.044C-3.5868 180.523 6.69098 213.54 21.8596 219.582C37.0285 225.624 33.3503 219.843 33.3503 219.843Z" fill="#12B76A"/>
<path d="M23.945 214.847C23.8676 213.236 23.5578 211.533 23.1847 209.856C22.8066 208.174 22.3504 206.494 21.857 204.824C20.8682 201.482 19.7239 198.171 18.4875 194.895C17.2479 191.62 15.9122 188.377 14.4501 185.19C13.7151 183.599 12.9479 182.022 12.1163 180.479C11.6938 179.712 11.2667 178.946 10.7936 178.209C10.3237 177.471 9.83284 176.738 9.21191 176.114C9.86951 176.701 10.4071 177.409 10.9221 178.121C11.4412 178.834 11.915 179.578 12.3849 180.323C13.311 181.823 14.1741 183.36 15.0059 184.914C16.6616 188.026 18.1946 191.202 19.635 194.422C21.0728 197.644 22.4217 200.909 23.6259 204.244C24.2273 205.911 24.7937 207.596 25.2887 209.317C25.7771 211.043 26.2162 212.788 26.4217 214.682L23.945 214.847Z" fill="#F1FFF9"/>
<path d="M41.12 215.502C41.12 215.502 40.8123 216.351 39.4841 216.617C39.216 216.671 38.9058 216.701 38.5481 216.694C37.0785 216.671 34.8023 216.043 31.3096 213.988C22.7727 208.959 22.6114 188.497 27.3403 181.566C36.9744 183.927 43.8207 202.75 41.12 215.502Z" fill="#9BFFB1"/>
<path d="M39.4842 216.617C39.2161 216.671 38.9059 216.701 38.5483 216.694C38.5433 216.636 38.536 216.582 38.531 216.525C38.2183 213.665 37.749 210.813 37.1782 207.983C36.6097 205.151 35.9346 202.338 35.1303 199.563C34.7257 198.176 34.2864 196.795 33.7798 195.442C33.6481 195.107 33.524 194.767 33.3825 194.435L33.1741 193.933L32.9507 193.442C32.6404 192.791 32.3177 192.139 31.8833 191.557C32.3375 192.123 32.6851 192.764 33.0201 193.407L33.2634 193.893L33.4894 194.387C33.6433 194.717 33.7798 195.053 33.9237 195.385C34.4797 196.726 34.9713 198.094 35.4255 199.469C36.3316 202.227 37.111 205.024 37.7862 207.849C38.4613 210.674 39.0323 213.524 39.4544 216.408L39.4842 216.617Z" fill="#019947"/>
<path d="M80.2954 215.649C80.2954 215.649 80.0255 216.393 78.8616 216.626C78.6265 216.674 78.3545 216.7 78.0413 216.694C76.7533 216.674 74.7582 216.124 71.6971 214.322C64.2148 209.914 64.0733 191.98 68.218 185.905C76.6619 187.974 82.6625 204.473 80.2954 215.649Z" fill="#9BFFB1"/>
<path opacity="0.5" d="M78.8618 216.626C78.6267 216.674 78.3547 216.7 78.0415 216.694C78.0372 216.644 78.0306 216.596 78.0263 216.546C77.7523 214.039 77.3409 211.539 76.8405 209.059C76.3423 206.576 75.7503 204.111 75.0456 201.679C74.6909 200.463 74.3058 199.253 73.862 198.067C73.7468 197.774 73.6379 197.476 73.514 197.184L73.3313 196.744L73.1354 196.314C72.8635 195.744 72.5806 195.171 72.2 194.662C72.5981 195.158 72.9026 195.72 73.1965 196.283L73.4097 196.71L73.6076 197.143C73.7425 197.432 73.8623 197.726 73.9885 198.017C74.4759 199.192 74.9066 200.391 75.3048 201.596C76.0988 204.014 76.7822 206.466 77.3739 208.941C77.9657 211.417 78.4661 213.915 78.836 216.443L78.8618 216.626Z" fill="#019947"/>
<path d="M212.193 219.843C211.002 198.396 226.889 169.465 243.173 168.044C249.13 180.523 238.853 213.54 223.684 219.582C208.515 225.624 212.193 219.843 212.193 219.843Z" fill="#9BFFB1"/>
<path d="M221.598 214.847C221.676 213.236 221.986 211.533 222.359 209.856C222.737 208.174 223.193 206.494 223.686 204.824C224.675 201.482 225.819 198.171 227.056 194.895C228.295 191.62 229.631 188.377 231.093 185.19C231.828 183.599 232.595 182.022 233.427 180.479C233.85 179.712 234.277 178.946 234.75 178.209C235.22 177.471 235.71 176.738 236.331 176.114C235.674 176.701 235.136 177.409 234.621 178.121C234.102 178.834 233.628 179.578 233.158 180.323C232.232 181.823 231.369 183.36 230.537 184.914C228.882 188.026 227.349 191.202 225.908 194.422C224.471 197.644 223.122 200.909 221.917 204.244C221.316 205.911 220.75 207.596 220.255 209.317C219.766 211.043 219.327 212.788 219.122 214.682L221.598 214.847ZM180.594 220.644C181.403 206.08 170.615 186.436 159.558 185.471C155.513 193.944 162.492 216.364 172.791 220.466C183.091 224.569 180.594 220.644 180.594 220.644Z" fill="#9BFFB1"/>
<path d="M174.208 217.251C174.155 216.157 173.945 215 173.691 213.862C173.435 212.719 173.125 211.579 172.79 210.445C172.118 208.175 171.341 205.928 170.502 203.703C169.66 201.479 168.753 199.277 167.76 197.113C167.261 196.033 166.74 194.962 166.176 193.914C165.889 193.393 165.599 192.873 165.278 192.372C164.958 191.871 164.625 191.374 164.204 190.95C164.65 191.349 165.015 191.829 165.365 192.313C165.717 192.797 166.039 193.302 166.358 193.809C166.987 194.827 167.573 195.871 168.138 196.926C169.262 199.039 170.303 201.195 171.281 203.382C172.257 205.57 173.173 207.787 173.991 210.051C174.399 211.183 174.784 212.327 175.12 213.496C175.452 214.668 175.75 215.853 175.89 217.139L174.208 217.251Z" fill="#019947"/>
<path d="M175.976 215.833C176.34 208.823 182.515 199.98 187.855 200.089C189.354 204.352 184.858 214.719 179.718 216.15C174.579 217.582 175.976 215.833 175.976 215.833Z" fill="#12B76A"/>
<path d="M179.207 214.539C179.288 214.018 179.449 213.476 179.629 212.944C179.81 212.411 180.017 211.881 180.236 211.356C180.674 210.305 181.162 209.269 181.679 208.248C182.196 207.228 182.744 206.221 183.33 205.237C183.625 204.746 183.929 204.26 184.253 203.788C184.418 203.553 184.583 203.319 184.763 203.096C184.941 202.873 185.126 202.652 185.35 202.471C185.116 202.639 184.916 202.85 184.724 203.064C184.53 203.277 184.35 203.502 184.172 203.728C183.82 204.184 183.482 204.651 183.159 205.128C182.514 206.082 181.901 207.058 181.322 208.054C180.742 209.051 180.19 210.064 179.682 211.106C179.428 211.626 179.185 212.154 178.964 212.696C178.745 213.239 178.541 213.791 178.408 214.399L179.207 214.539Z" fill="#F1FFF9"/>
<path d="M74.8169 215.833C75.1809 208.823 81.3557 199.98 86.696 200.089C88.1945 204.352 83.6989 214.719 78.5593 216.15C73.4195 217.582 74.8169 215.833 74.8169 215.833Z" fill="#9BFFB1"/>
<path d="M78.0473 214.539C78.1289 214.018 78.2892 213.476 78.4692 212.944C78.6509 212.411 78.858 211.881 79.0767 211.356C79.5149 210.305 80.0026 209.269 80.5192 208.248C81.0367 207.228 81.5843 206.221 82.1708 205.237C82.4653 204.746 82.7699 204.26 83.094 203.788C83.2582 203.553 83.4238 203.319 83.6033 203.096C83.7819 202.873 83.9668 202.652 84.1905 202.471C83.9563 202.639 83.7568 202.85 83.5646 203.064C83.371 203.277 83.191 203.502 83.0122 203.728C82.6605 204.184 82.323 204.651 82 205.128C81.3544 206.082 80.7417 207.058 80.1629 208.054C79.583 209.051 79.0304 210.064 78.5222 211.106C78.2685 211.626 78.0255 212.154 77.8043 212.696C77.5852 213.239 77.3813 213.791 77.2483 214.399L78.0473 214.539Z" fill="#019947"/>
<path d="M204.424 215.502C204.424 215.502 204.731 216.351 206.059 216.617C206.328 216.671 206.638 216.701 206.995 216.694C208.465 216.671 210.741 216.043 214.234 213.988C222.771 208.959 222.932 188.497 218.203 181.566C208.569 183.927 201.723 202.75 204.424 215.502Z" fill="#12B76A"/>
<path d="M206.059 216.617C206.327 216.671 206.638 216.701 206.995 216.694C207 216.636 207.008 216.582 207.013 216.525C207.325 213.665 207.795 210.813 208.365 207.983C208.934 205.151 209.609 202.338 210.413 199.563C210.818 198.176 211.257 196.795 211.764 195.442C211.895 195.107 212.019 194.767 212.161 194.435L212.369 193.933L212.593 193.442C212.903 192.791 213.226 192.139 213.66 191.557C213.206 192.123 212.858 192.764 212.523 193.407L212.28 193.893L212.054 194.387C211.9 194.717 211.764 195.053 211.62 195.385C211.064 196.726 210.572 198.094 210.118 199.469C209.212 202.227 208.433 205.024 207.757 207.849C207.082 210.674 206.511 213.524 206.089 216.408L206.059 216.617Z" fill="#F1FFF9"/>
<path d="M242.93 240.76H3.06976C1.38147 240.76 0 239.378 0 237.69V216.276C0 214.588 1.38147 213.206 3.06976 213.206H242.93C244.618 213.206 246 214.588 246 216.276V237.69C246 239.378 244.619 240.76 242.93 240.76Z" fill="#D1C5B0"/>
<path d="M205.574 159.981L218.444 176.981L213.665 150.373L203.744 152.222L205.574 159.981Z" fill="#C83C00"/>
<path d="M174.476 116.417C170.68 127.716 166.125 143.741 171.955 152.847C177.785 161.952 206.656 160.523 206.656 160.523L205.517 152.121C205.517 152.121 185.514 148.04 186.383 145.438C187.252 142.837 192.267 124.066 191.508 121.541C190.749 119.016 189.712 111.41 189.712 111.41L174.476 116.417Z" fill="#456B5B"/>
<path d="M209.943 193.106L194.969 208.285L220.614 199.733L217.359 190.18L209.943 193.106Z" fill="#C83C00"/>
<path d="M175.91 114.282C176.113 118.308 208.537 193.679 208.537 193.679L218.047 191.399C218.047 191.399 200.829 122.183 199.065 113.117C197.301 104.051 175.91 114.282 175.91 114.282Z" fill="#487361"/>
<path d="M211.574 90.7278L214.273 94.1014L220.78 116.791L222.541 126.355L217.875 125.003L216.93 118.846L215.718 121.275L214.387 121.521L216.036 116.299L208.555 97.7103L203.83 94.5458L211.574 90.7278Z" fill="#F4CABA"/>
<path d="M164.775 98.7895L168.338 96.3463L165.101 88.3419L161.597 92.8216L142.508 98.9131L137.422 96.8844L137.569 98.2296L139.902 99.6169L133.692 100.107L132 104.66L141.668 103.609L164.775 98.7895Z" fill="#F4CABA"/>
<path d="M183.161 85.9381L168.849 97.3781L160.626 89.3017L177.666 73.078L183.161 85.9381Z" fill="#47271F"/>
<path d="M181.514 68.5666C180.919 69.0964 175.199 73.452 172.564 78.4223C169.93 83.3929 172.75 118.477 172.75 118.477L203.392 116.935L197.276 91.017L203.382 97.611L214.001 88.6887C214.001 88.6887 202.703 73.272 200.307 71.6682C195.813 68.6613 181.514 68.5666 181.514 68.5666ZM182.29 44.157C184.739 44.3388 196.79 46.2658 186.819 60.8501C184.725 64.6918 182.29 44.157 182.29 44.157Z" fill="#47271F"/>
<path d="M181.514 68.5666C180.919 69.0964 175.199 73.452 172.564 78.4223C169.93 83.3929 172.75 118.477 172.75 118.477L203.392 116.935L197.276 91.0171L203.382 97.611L214.001 88.6887C214.001 88.6887 202.703 73.272 200.307 71.6683C195.813 68.6614 181.514 68.5666 181.514 68.5666Z" fill="#5E3F35"/>
<path d="M171.815 47.5803C171.815 47.5803 170.288 62.9184 173.635 66.1774C176.034 65.892 179.754 65.8148 181.346 65.221C186.122 63.4398 185.404 60.1242 187.266 57.8635C190.819 53.5503 183.427 42.8261 171.815 47.5803Z" fill="#F4CABA"/>
<path d="M180.75 62.8455L181.251 68.7868L180.222 72.1819C179.758 73.4804 181.417 74.4742 182.342 73.4524L187.4 68.8333L187.017 57.8758L180.75 62.8455Z" fill="#F4CABA"/>
<path d="M177.22 51.8247C176.061 51.7623 174.921 52.0313 173.781 52.2531C172.641 52.475 171.373 52.5408 170.407 51.8969C169.083 51.0138 168.83 49.1765 167.848 47.9238C167.149 47.032 166.114 46.4803 165.246 45.7514C165.119 45.6442 164.99 45.5275 164.926 45.3738C164.781 45.0262 165.008 44.6408 165.248 44.3499C166.1 43.3156 167.264 42.5222 168.564 42.1999C169.865 41.8776 171.299 42.0475 172.443 42.7466C173.485 43.3839 174.302 44.444 175.487 44.7428C177.275 45.1938 178.954 43.7404 180.768 43.4067C181.401 43.2908 182.051 43.3135 182.675 43.473C183.07 43.5743 183.456 43.7338 183.773 43.9907C184.643 44.6961 184.839 45.9881 185.675 46.7334C186.546 47.5097 187.913 47.5185 188.776 48.303C189.379 48.8501 189.628 49.6758 189.843 50.4607C190.111 51.4425 190.348 52.5638 189.798 53.42C189.558 53.7934 188.944 57.1132 188.565 57.3444C186.387 58.6744 184.116 56.034 182.038 55.0058C181.287 54.6339 180.685 54.03 180.215 53.3355C179.825 52.7588 178.963 51.9188 177.22 51.8247Z" fill="#47271F"/>
<path d="M184.639 53.2736L184.697 58.8261L185.803 58.7705L187.603 53.1244L184.639 53.2736Z" fill="#47271F"/>
<path d="M186.16 53.9685C188.333 52.316 189.028 52.903 188.844 55.3789C188.66 57.8551 185.803 58.7703 185.803 58.7703L186.16 53.9685Z" fill="#F4CABA"/>
<path d="M176.58 95.2806C178.322 95.1928 179.582 92.0818 179.393 88.332C179.204 84.5822 177.638 81.6135 175.896 81.7013C174.153 81.789 172.894 84.9 173.083 88.6498C173.271 92.3996 174.837 95.3683 176.58 95.2806Z" fill="#F04438"/>
<path d="M131.62 37.3232L126.574 32.0351M138.488 37.3232L143.534 32.0351M140.68 29.2303L141.011 28.8829M138.488 31.5269L140.101 29.8366M133.386 31.5269L131.773 29.8366" stroke="#12B76A" stroke-width="2" stroke-miterlimit="10" stroke-linecap="round"/>
<path d="M127.504 24.403C122.604 24.403 118.635 28.3747 118.635 33.2749C118.635 28.3747 114.663 24.403 109.763 24.403C114.663 24.403 118.635 20.4312 118.635 15.531C118.635 20.4312 122.604 24.403 127.504 24.403ZM147.193 60.6246C144.739 60.6246 142.751 62.6138 142.751 65.0681C142.751 62.6138 140.762 60.6246 138.308 60.6246C140.762 60.6246 142.751 58.6355 142.751 56.1812C142.751 58.6352 144.739 60.6246 147.193 60.6246Z" fill="#12B76A"/>
</g>
<defs>
<clipPath id="clip0_194_5668">
<rect width="246" height="246" fill="white"/>
</clipPath>
</defs>
</svg>
