<svg width="59" height="64" viewBox="0 0 59 64" fill="none" xmlns="http://www.w3.org/2000/svg">
<g opacity="0.3">
<path d="M29.3348 63.9573H28.75V56.5487L31.6184 53.6803V9.18906L28.8271 6.39857V0H29.4119V6.15674L32.2031 8.94722V53.9222L29.3348 56.7905V63.9573ZM47.9584 46.7629H47.3737V37.0265L40.1905 29.8433V15.0965L37.0368 11.9429V6.75646H37.6216V11.701L40.7752 14.8546V29.6015L47.9584 36.7847V46.7629Z" fill="#E7F8F0"/>
<path d="M47.8719 42.3753L47.4586 41.962L52.2167 37.2039V27.0759L46.3887 21.2486V16.1094H46.9734V21.0068L52.8007 26.8341V37.4457L47.8719 42.3753Z" fill="#E7F8F0"/>
<path d="M46.4488 35.3977H45.8641V29.0777L50.2471 24.6939L50.6604 25.1072L46.4488 29.3195V35.3977ZM52.7149 34.0133L52.3016 33.6L55.8445 30.057V25.5655H56.4293V30.2989L52.7149 34.0133ZM35.9824 58.8394H35.3984V51.5888L38.6995 48.2869V13.4863H39.2843V48.5287L35.9824 51.8306V58.8394Z" fill="#E7F8F0"/>
<path d="M45.8262 48.9954H45.2422V42.0585L38.7867 35.603L39.2 35.1897L45.8262 41.8166V48.9954ZM26.0188 62.0276H25.434V58.2877L23.3496 56.2026V9.54598L25.4445 7.79621V1.92773H26.0293V8.0695L23.9344 9.81926V55.9607L26.0188 58.0459V62.0276Z" fill="#E7F8F0"/>
<path d="M18.2415 16.8221H17.6575V12.1665L25.5303 4.29297L25.9436 4.70626L18.2415 12.4084V16.8221ZM11.6445 47.6447H11.0605V31.5884L15.35 27.2982L15.7633 27.7115L11.6445 31.8302V47.6447Z" fill="#E7F8F0"/>
<path d="M15.2634 12.1094H15.8482V51.8485H15.2634V12.1094ZM0.413294 36.7064L0 36.2931L6.69132 29.6018V20.6815H7.27607V29.8436L0.413294 36.7064ZM8.18128 19.1923H8.76603V44.7664H8.18128V19.1923Z" fill="#E7F8F0"/>
<path d="M3.58203 39.875L8.26631 35.1906L8.6798 35.604L3.99552 40.2885L3.58203 39.875Z" fill="#E7F8F0"/>
<path d="M13.7158 29.3462L10.8025 26.4322V16.5723H11.3873V26.1904L14.1291 28.9329L13.7158 29.3462ZM54.4028 31.6216H54.9876V39.8366H54.4028V31.6216ZM57.1461 37.6772H56.5621V33.3549L58.4167 31.5003V28.1363H59.0007V31.7421L57.1461 33.5967V37.6772ZM3.05475 24.3193H3.6395V33.3601H3.05475V24.3193ZM1.0332 26.3409H1.61795V35.3981H1.0332V26.3409ZM5.16839 31.248H5.75314V38.4125H5.16839V31.248ZM44.7383 33.6866H44.1536V21.6029L42.3896 19.839V12.1099H42.9743V19.5971L44.7383 21.3611V33.6866ZM33.4858 3.20611H34.0705V60.7536H33.4858V3.20611ZM28.8362 56.8775L26.1026 54.1439V10.5593L27.3111 9.0379V0.34375H27.8958V9.24156L26.6874 10.7637V53.902L29.2488 56.4642L28.8362 56.8775Z" fill="#E7F8F0"/>
</g>
<path d="M51.3666 52.0369C51.3666 53.4838 41.3106 54.6571 28.9047 54.6571C16.5001 54.6571 6.44336 53.4838 6.44336 52.0369C6.44336 50.59 16.5001 49.416 28.9047 49.416C41.3106 49.416 51.3666 50.5892 51.3666 52.0369Z" fill="#EDEDED"/>
<path d="M12.6484 47.5547H17.3916V52.336H12.6484V47.5547Z" fill="#9EE1C2"/>
<path d="M12.6484 47.5547H17.3916V49.9454H12.6484V47.5547Z" fill="#3AC383"/>
<path d="M20.7402 42.7754H25.6496V52.3373H20.7402V42.7754Z" fill="#9EE1C2"/>
<path d="M20.7402 42.7754H25.6496V47.5567H20.7402V42.7754Z" fill="#3AC383"/>
<path d="M28.7305 34.6836H33.7402V52.337H28.7305V34.6836Z" fill="#9EE1C2"/>
<path d="M28.7305 34.6836H33.7402V40.4233H28.7305V34.6836Z" fill="#3AC383"/>
<path d="M36.5762 24.1406H41.5859V52.3367H36.5762V24.1406Z" fill="#9EE1C2"/>
<path d="M36.5762 24.1406H41.5859V30.635H36.5762V24.1406Z" fill="#3AC383"/>
<path d="M12.6484 44.2184L22.8887 39.7081L39.0821 15.0347L37.7037 14.2246L21.8457 37.9958L12.6484 44.2184Z" fill="#3AC383"/>
<path d="M33.0117 15.7134L37.4135 16.1784L39.1737 19.2227L39.2141 18.9464L40.141 12.4805L33.0117 15.7134Z" fill="#3AC383"/>
<path d="M43.0636 43.7856V42.1107C41.9113 42.0575 40.7928 41.7401 40.1406 41.3522L40.655 39.2903C41.3775 39.6953 42.3935 40.0659 43.5106 40.0659C44.4922 40.0659 45.1623 39.6781 45.1623 38.9728C45.1623 38.3027 44.6112 37.8804 43.3392 37.4394C41.4981 36.8045 40.2432 35.9233 40.2432 34.2132C40.2432 32.6618 41.3101 31.4452 43.1497 31.0745V29.4004H44.8351V30.951C45.9874 31.0042 46.7616 31.2505 47.3284 31.5328L46.8305 33.5251C46.3835 33.3304 45.5921 32.9254 44.3544 32.9254C43.2358 32.9254 42.8765 33.4195 42.8765 33.9129C42.8765 34.4939 43.4777 34.8646 44.9392 35.4283C46.9854 36.1696 47.8113 37.1392 47.8113 38.7257C47.8113 40.2943 46.7264 41.6345 44.7505 41.9864V43.7848H43.0636V43.7856Z" fill="#3AC383"/>
<path d="M21.5352 36.6875C21.5352 36.6875 22.9907 37.8166 22.4165 37.7724C21.8429 37.7282 21.36 37.6653 21.0059 36.826L21.5352 36.6875Z" fill="#EFD68F"/>
<path d="M22.1069 28.0468C22.1047 27.7354 21.9744 27.0653 21.3604 27.3962C20.3856 27.9218 19.1307 31.318 19.0791 32.1281C19.0282 32.939 21.0175 36.9454 21.0175 36.9454C21.0175 36.9454 21.4698 37.0869 21.6262 36.6481L20.2875 32.1446C20.2868 32.1461 22.1152 29.1235 22.1069 28.0468Z" fill="#F5A133"/>
<path d="M20.749 53.9064L20.8163 54.7928L19.9141 54.6281L19.8887 53.4908L20.749 53.9064ZM26.4804 53.1292L26.5471 54.0149L25.6456 53.8502L25.6194 52.7129L26.4804 53.1292Z" fill="#FFE8A7"/>
<path d="M26.4891 53.6953C26.4891 53.6953 26.1013 54.2082 25.5532 53.8263C25.5532 53.8263 24.9632 55.3882 26.0391 55.5027C27.1143 55.6165 29.0161 55.219 29.2287 54.7375C29.5334 54.0435 27.7799 53.7605 26.4891 53.6953ZM20.7652 54.5803C20.7652 54.5803 20.2343 54.9442 19.8352 54.4081C19.8352 54.4081 18.7818 55.7026 19.7656 56.1519C20.7494 56.5996 22.6796 56.825 23.033 56.4356C23.5437 55.8741 21.9691 55.0512 20.7652 54.5803Z" fill="#5A8465"/>
<path d="M22.3398 25.2598C22.3398 25.2598 22.8692 26.421 22.4746 27.2147C22.2238 27.7201 24.4789 29.204 24.3891 28.5534C24.2715 27.7141 23.8343 27.2252 24.2266 26.2458L22.3398 25.2598Z" fill="#EFD68F"/>
<path d="M24.0772 23.1081C24.8057 23.7685 25.4661 26.0221 24.7263 26.69C24.4044 26.9805 23.2154 27.3886 22.3372 26.1C21.9755 25.5707 21.5226 24.5764 22.0467 23.5536C22.2833 23.0901 23.2281 22.3392 24.0772 23.1081Z" fill="#FFE9A8"/>
<path d="M25.2621 23.3744C25.2621 23.3744 24.9327 23.909 23.8156 24.1021C22.6985 24.2945 23.0122 24.6195 23.132 24.8838C23.4817 25.6625 22.7045 25.3794 23.132 26.3079C23.5595 27.237 22.2133 26.3722 22.1033 26.2345C21.9947 26.096 20.9869 24.9744 21.6016 23.6042C22.2141 22.2341 24.2566 22.6414 25.2621 23.3744Z" fill="#9B3C34"/>
<path d="M24.0659 36.2773L22.9653 45.3548C22.9653 45.3548 22.3274 51.9593 21.393 54.055C21.1893 54.5125 19.641 54.4885 19.4672 53.9629C18.6242 51.4098 20.2137 43.3602 20.2137 43.3602L20.5439 36.2781H24.0659V36.2773Z" fill="#AF9035"/>
<path d="M22.3416 36.2786C20.8381 38.0935 24.0973 45.5433 24.0973 45.5433C24.0973 45.5433 23.8682 51.2673 25.0594 52.9369C25.3282 53.3135 26.926 53.3734 27.0413 52.9369C27.6874 50.4923 27.0413 44.2585 27.0413 44.2585L26.3659 36.2786H24.0674C24.0674 36.2786 22.6171 35.9462 22.3416 36.2786Z" fill="#D8B244"/>
<path d="M24.7849 27.8198C25.8189 28.6816 26.6462 30.7001 26.8177 37.2133C26.8559 38.6456 20.2993 38.3453 20.327 36.9123C20.3996 33.0998 19.3686 31.8741 20.5943 28.4824C20.9275 27.5607 22.7356 26.1112 24.7849 27.8198Z" fill="#F8BD70"/>
<path d="M32.125 24.3264C32.125 24.3264 32.4762 22.4194 32.712 22.9772C32.9478 23.535 33.123 24.0172 32.5098 24.7547L32.125 24.3264Z" fill="#EFD68F"/>
<path d="M23.7673 27.9729C23.4768 28.1249 22.9138 28.5711 23.5202 28.9852C24.4831 29.6425 28.2664 29.1731 29.0495 28.8287C29.8327 28.4843 32.6164 24.6853 32.6164 24.6853C32.6164 24.6853 32.5296 24.1941 32.0444 24.26L28.4812 27.6914C28.4812 27.6914 24.7698 27.4443 23.7673 27.9729Z" fill="#F5A133"/>
</svg>
