<svg width="46" height="45" viewBox="0 0 46 45" fill="none" xmlns="http://www.w3.org/2000/svg">
<path d="M43.1785 14.8016C38.8375 10.9104 34.4965 6.94977 30.1555 3.05859C23.7841 12.6476 13.0017 21.1943 2.77935 27.3784C2.49928 28.6987 2.21922 29.9494 1.86914 31.2001C6.35015 35.2303 10.8312 39.3299 15.3122 43.3601C25.8846 37.5928 37.0871 29.3935 43.8786 20.0825C43.6686 18.3454 43.3885 16.6082 43.1785 14.8016Z" fill="#699635"/>
<path d="M16.1529 38.2192C11.7419 34.189 7.33092 30.1589 2.91992 26.1982C13.9124 20.014 23.1545 11.6063 29.946 1.66992C34.357 5.70007 38.768 9.66073 43.179 13.6909C36.3875 23.6273 27.1454 32.035 16.1529 38.2192Z" fill="#83BF4F"/>
<path d="M15.0329 35.578C12.0923 32.9376 9.1516 30.2277 6.21094 27.5872C6.42098 27.4482 6.56102 27.3788 6.77106 27.2398C7.33119 26.8924 7.47122 26.267 6.98111 25.7806L6.56102 25.3637C15.453 19.9438 23.1548 12.9953 29.1761 4.93502L29.5962 5.35193C30.0863 5.76884 30.7865 5.69936 31.2066 5.21296C31.3466 5.07399 31.4166 4.86553 31.5567 4.72656C34.4973 7.367 37.438 10.0769 40.3787 12.7174C40.2386 12.8563 40.1686 13.0648 40.0286 13.2038C39.6085 13.7597 39.6785 14.524 40.1686 15.0104L40.5887 15.4273C34.5673 23.4181 26.8656 30.3666 17.9736 35.7865L17.5535 35.3696C17.0634 34.9527 16.2232 34.8832 15.5931 35.2306C15.383 35.3696 15.243 35.4391 15.0329 35.578ZM8.10136 27.6567C10.4819 29.8108 12.8624 31.9648 15.313 34.1883C16.2232 33.9104 17.2734 33.9799 18.1136 34.3968C26.2355 29.2549 33.3071 22.8622 38.9783 15.4273C38.4882 14.663 38.4182 13.6902 38.7683 12.8563C36.3878 10.7023 34.0072 8.54825 31.5567 6.32472C30.9265 6.88061 30.0163 6.95009 29.2461 6.53318C23.5749 14.0376 16.5033 20.4302 8.38143 25.5722C8.80152 26.267 8.73151 27.1008 8.10136 27.6567Z" fill="#699635"/>
<path d="M14.4735 26.1977C15.2436 25.9198 16.0838 25.9893 16.644 26.4757C16.2939 26.7536 15.8738 27.0316 15.5237 27.3095C15.3837 27.1705 15.0336 27.1705 14.8936 27.3095C14.6835 27.4485 14.6135 27.6569 14.8236 27.7959C14.9636 27.9349 15.3137 27.9349 15.5237 27.7959C16.3639 27.24 17.5542 27.1705 18.1843 27.7959C18.6744 28.2823 18.7444 28.9772 18.2543 29.533C18.3944 29.672 18.5344 29.7415 18.6744 29.8805C18.3243 30.0889 17.9743 30.3669 17.6242 30.5753C17.4842 30.4363 17.3441 30.2974 17.2041 30.2279C16.4339 30.4363 15.5937 30.3669 15.1036 29.8805C15.5237 29.6025 15.8738 29.3941 16.2939 29.1161C16.4339 29.2551 16.784 29.2551 16.994 29.1161C17.2041 28.9772 17.2041 28.7687 17.0641 28.6297C16.924 28.4908 16.644 28.4908 16.4339 28.6297C15.9438 28.9772 15.3137 29.1161 14.7535 29.0466C14.3334 28.9772 13.9834 28.8382 13.7033 28.6297C13.2132 28.1433 13.2132 27.518 13.6333 26.9621C13.4933 26.8926 13.4232 26.7536 13.2832 26.6147C13.6333 26.4062 13.9834 26.1283 14.3334 25.9198C14.2634 25.9893 14.4035 26.0588 14.4735 26.1977ZM30.7171 11.3279C31.3473 10.911 32.1175 10.911 32.6076 11.3974L31.7674 12.4397C31.6273 12.3007 31.3473 12.3007 31.2073 12.5091C31.0672 12.7176 31.0672 12.9955 31.2073 13.1345C31.3473 13.2735 31.6273 13.2735 31.7674 13.065C32.3975 12.3007 33.4478 12.1617 34.0779 12.7176C34.568 13.204 34.708 13.9683 34.428 14.6632C34.568 14.8022 34.708 14.8716 34.8481 15.0106C34.568 15.358 34.358 15.636 34.0779 15.9834C33.9379 15.8444 33.7978 15.7055 33.6578 15.636C33.0277 15.9834 32.3275 15.9834 31.8374 15.497C32.1175 15.1496 32.4675 14.8022 32.7476 14.4547C32.8876 14.5937 33.1677 14.5937 33.3077 14.3852C33.4478 14.1768 33.4478 13.8989 33.3077 13.7599C33.1677 13.6209 32.8876 13.6209 32.7476 13.8294C32.3975 14.2463 31.8374 14.5242 31.3473 14.5242C30.9972 14.5242 30.6471 14.3852 30.3671 14.1768C29.877 13.6904 29.7369 12.9955 30.017 12.3007C29.877 12.2312 29.8069 12.0922 29.6669 11.9533C29.947 11.6753 30.227 11.3279 30.4371 10.9805C30.4371 11.1194 30.5771 11.1889 30.7171 11.3279ZM28.6167 24.947C26.3762 26.9621 22.5953 26.8926 20.4248 24.947C18.2543 22.9319 18.3944 19.8051 20.6349 17.79C22.8754 15.775 26.3762 15.5665 28.5467 17.5816C30.7872 19.5272 30.8572 22.9319 28.6167 24.947Z" fill="#699635"/>
<path d="M15.7324 17.3025L28.9654 29.3234C30.5058 28.0727 31.9061 26.7525 33.3064 25.3628L20.1434 13.3418C18.7431 14.662 17.2728 15.9822 15.7324 17.3025Z" fill="#FFDD7D"/>
<path d="M29.0352 34.606C30.5055 33.4942 31.9758 32.3129 33.3761 31.1317V25.2949C31.9758 26.6846 30.5055 28.0048 29.0352 29.2556V34.606Z" fill="#DBB471"/>
<path d="M8.94141 17.4414C9.71158 17.1635 10.3417 16.7466 10.9719 16.2602C11.602 15.7738 12.1621 15.2874 12.7923 14.7315C13.4224 14.2451 14.0526 13.6892 14.7527 13.3418C15.4529 12.9249 16.3631 12.7164 17.1333 12.8554C16.3631 12.9943 15.6629 13.3418 15.0328 13.8282C14.4026 14.2451 13.8425 14.801 13.2124 15.2874C12.5822 15.7738 11.9521 16.3296 11.2519 16.7466C10.5518 17.1635 9.71158 17.4414 8.94141 17.4414Z" fill="#8D9998"/>
<path d="M28.3351 23.2797C28.3351 23.2797 31.7659 24.2525 39.7477 22.168C47.7295 20.0834 43.9487 42.8746 29.3854 42.8746C27.775 42.8746 27.705 40.8595 32.186 37.2463C32.186 37.2463 25.8846 38.7055 28.6152 34.0499C28.6152 34.0499 24.1342 34.8143 26.1647 31.2705C26.1647 31.2705 27.0749 28.6301 26.2347 25.6422C26.3047 25.6422 26.7948 24.1135 28.3351 23.2797Z" fill="#E8E8E8"/>
<path d="M43.5296 24.3906C43.6696 30.5053 38.7685 40.6502 29.0363 40.6502H28.8963C27.9861 42.1094 28.4062 42.9432 29.3864 42.9432C40.4489 42.8737 45.28 29.8105 43.5296 24.3906Z" fill="#D1D1D1"/>
<path d="M38.4877 27.7266C36.3872 35.231 27.9853 35.8563 27.9853 35.8563C27.6353 37.4545 28.3354 38.1494 29.2456 38.1494C32.3263 38.2188 38.0676 33.1464 38.4877 27.7266ZM32.6064 27.7266C27.6353 34.6751 25.8849 32.1041 25.8849 32.1041C24.6246 34.8835 27.9153 34.8835 28.4755 34.2582C30.0858 32.521 32.6764 28.9078 32.6064 27.7266Z" fill="#D1D1D1"/>
<path d="M28.8246 40.8593C29.6648 39.7475 30.715 38.8442 31.7652 37.9409C32.8155 37.0376 33.8657 36.1343 34.9159 35.1615C35.8962 34.1887 36.8764 33.0769 37.5765 31.8262C38.2767 30.5755 38.6268 29.1163 38.4867 27.7266C38.3467 29.1163 37.8566 30.4365 37.0864 31.5483C36.3163 32.66 35.4061 33.7023 34.4258 34.6751C33.4456 35.6479 32.3954 36.5512 31.4152 37.5935C30.3649 38.4968 29.4547 39.6085 28.8246 40.8593ZM27.9844 35.8563C28.2644 35.092 28.6845 34.4666 29.1746 33.8413C29.6648 33.2159 30.1549 32.66 30.715 32.0347C31.2051 31.4093 31.7652 30.7839 32.1153 30.0891C32.5354 29.3942 32.7455 28.4909 32.6054 27.7266C32.4654 28.4909 32.1153 29.1858 31.6252 29.8111C31.2051 30.4365 30.645 30.9924 30.1549 31.6177C29.6648 32.2431 29.1046 32.8685 28.6845 33.5633C28.2644 34.2582 27.9844 35.092 27.9844 35.8563Z" fill="#8D9998"/>
<path d="M21.6136 17.0955C21.6136 17.0955 20.6334 13.6908 22.7339 5.76943C24.8343 -2.15189 1.86914 1.60031 1.86914 16.0533C1.86914 17.6514 3.8996 17.7209 7.54042 13.2738C7.54042 13.2738 6.07009 19.5275 10.7612 16.8176C10.7612 16.8176 9.99098 21.2646 13.5618 19.2496C13.5618 19.2496 16.2224 18.3463 19.2331 19.1801C19.2331 19.1106 20.7734 18.6242 21.6136 17.0955Z" fill="#E8E8E8"/>
<path d="M20.4933 2.01725C14.332 1.87828 4.10965 6.74225 4.10965 16.4007V16.5397C2.63931 17.3735 1.86914 17.0261 1.86914 16.0533C1.86914 5.0746 15.0321 0.280113 20.4933 2.01725Z" fill="#D1D1D1"/>
<path d="M17.132 7.01953C9.57028 9.10409 8.94014 17.4423 8.94014 17.4423C7.32978 17.7898 6.62962 17.0949 6.62962 16.1916C6.5596 13.1342 11.6708 7.43644 17.132 7.01953ZM17.132 12.8563C10.1304 17.7898 12.721 19.5269 12.721 19.5269C9.92036 20.7776 9.92036 17.5118 10.5505 16.9559C12.3009 15.3578 15.9417 12.7868 17.132 12.8563Z" fill="#D1D1D1"/>
<path d="M3.90039 16.6074C5.02064 15.7736 5.93085 14.7313 6.84106 13.6891C7.75126 12.6468 8.66147 11.6045 9.64169 10.5622C10.6219 9.58944 11.7422 8.61664 13.0024 7.92179C14.2627 7.22693 15.7331 6.87951 17.1334 7.01848C15.7331 7.15745 14.4028 7.64385 13.2825 8.40818C12.1623 9.17252 11.112 10.0758 10.1318 11.0486C9.15158 12.0214 8.24137 13.0637 7.19113 14.0365C6.21091 15.0788 5.16068 15.9821 3.90039 16.6074Z" fill="#8D9998"/>
<path d="M8.94141 17.4414C9.71158 17.1635 10.3417 16.7466 10.9719 16.2602C11.602 15.7738 12.1621 15.2874 12.7923 14.7315C13.4224 14.2451 14.0526 13.6892 14.7527 13.3418C15.4529 12.9249 16.3631 12.7164 17.1333 12.8554C16.3631 12.9943 15.6629 13.3418 15.0328 13.8282C14.4026 14.2451 13.8425 14.801 13.2124 15.2874C12.5822 15.7738 11.9521 16.3296 11.2519 16.7466C10.5518 17.1635 9.71158 17.4414 8.94141 17.4414Z" fill="#8D9998"/>
</svg>
